{
  "accessors": [
    {
      "bufferView": 2,
      "componentType": 5126,
      "count": 65532,
      "max": [
        27.773805618286133,
        17.032686233520508,
        4.234722137451172
      ],
      "min": [
        -19.63443374633789,
        -12.599589347839355,
        -0.08739757537841797
      ],
      "type": "VEC3"
    },
    {
      "bufferView": 2,
      "byteOffset": 786384,
      "componentType": 5126,
      "count": 65532,
      "max": [
        0.9999929070472717,
        0.9998884201049805,
        0.9999998807907104
      ],
      "min": [
        -0.9999400973320007,
        -0.9999707341194153,
        -1.0
      ],
      "type": "VEC3"
    },
    {
      "bufferView": 1,
      "componentType": 5126,
      "count": 65532,
      "max": [
        0.9995120167732239,
        0.9448239803314209
      ],
      "min": [
        0.0004879999905824661,
        0.0004879999905824661
      ],
      "type": "VEC2"
    },
    {
      "bufferView": 0,
      "componentType": 5125,
      "count": 258504,
      "type": "SCALAR"
    },
    {
      "bufferView": 2,
      "byteOffset": 1572768,
      "componentType": 5126,
      "count": 65532,
      "max": [
        27.7737979888916,
        14.513300895690918,
        4.2347259521484375
      ],
      "min": [
        -19.810720443725586,
        -12.599589347839355,
        -0.08739757537841797
      ],
      "type": "VEC3"
    },
    {
      "bufferView": 2,
      "byteOffset": 2359152,
      "componentType": 5126,
      "count": 65532,
      "max": [
        0.9999921321868896,
        0.99997878074646,
        0.9999988675117493
      ],
      "min": [
        -0.9999586343765259,
        -0.9999894499778748,
        -1.0
      ],
      "type": "VEC3"
    },
    {
      "bufferView": 1,
      "byteOffset": 524256,
      "componentType": 5126,
      "count": 65532,
      "max": [
        0.9995120167732239,
        0.9565430283546448
      ],
      "min": [
        0.0004879999905824661,
        0.0004879999905824661
      ],
      "type": "VEC2"
    },
    {
      "bufferView": 0,
      "byteOffset": 1034016,
      "componentType": 5125,
      "count": 191388,
      "type": "SCALAR"
    },
    {
      "bufferView": 2,
      "byteOffset": 3145536,
      "componentType": 5126,
      "count": 65135,
      "max": [
        27.7737979888916,
        15.311360359191895,
        4.088849067687988
      ],
      "min": [
        -19.210538864135742,
        -12.599589347839355,
        -0.08739757537841797
      ],
      "type": "VEC3"
    },
    {
      "bufferView": 2,
      "byteOffset": 3927156,
      "componentType": 5126,
      "count": 65135,
      "max": [
        0.9999866485595703,
        0.9999686479568481,
        0.9999998807907104
      ],
      "min": [
        -0.9999353885650635,
        -0.9999752640724182,
        -1.0
      ],
      "type": "VEC3"
    },
    {
      "bufferView": 1,
      "byteOffset": 1048512,
      "componentType": 5126,
      "count": 65135,
      "max": [
        0.9995120167732239,
        0.9604489803314209
      ],
      "min": [
        0.0004879999905824661,
        0.0004879999905824661
      ],
      "type": "VEC2"
    },
    {
      "bufferView": 0,
      "byteOffset": 1799568,
      "componentType": 5125,
      "count": 143586,
      "type": "SCALAR"
    }
  ],
  "asset": {
    "extras": {
      "author": "UoM Digitisation Centre (https://sketchfab.com/uomdigitisation)",
      "license": "CC-BY-NC-SA-4.0 (http://creativecommons.org/licenses/by-nc-sa/4.0/)",
      "source": "https://sketchfab.com/3d-models/trestle-bridge-80ade295c3de49e8b53a27a6329d501e",
      "title": "Trestle bridge"
    },
    "generator": "Sketchfab-12.66.0",
    "version": "2.0"
  },
  "bufferViews": [
    {
      "buffer": 0,
      "byteLength": 2373912,
      "name": "floatBufferViews",
      "target": 34963
    },
    {
      "buffer": 0,
      "byteLength": 1569592,
      "byteOffset": 2373912,
      "byteStride": 8,
      "name": "floatBufferViews",
      "target": 34962
    },
    {
      "buffer": 0,
      "byteLength": 4708776,
      "byteOffset": 3943504,
      "byteStride": 12,
      "name": "floatBufferViews",
      "target": 34962
    }
  ],
  "buffers": [
    {
      "byteLength": 8652280,
      "uri": "scene.bin"
    }
  ],
  "extensionsUsed": [
    "KHR_materials_unlit"
  ],
  "images": [
    {
      "uri": "textures/model_Material_u1_v1_baseColor.jpeg"
    }
  ],
  "materials": [
    {
      "doubleSided": true,
      "extensions": {
        "KHR_materials_unlit": {}
      },
      "name": "model_Material_u1_v1",
      "pbrMetallicRoughness": {
        "baseColorTexture": {
          "index": 0
        },
        "metallicFactor": 0.0
      }
    }
  ],
  "meshes": [
    {
      "name": "Object_0",
      "primitives": [
        {
          "attributes": {
            "NORMAL": 1,
            "POSITION": 0,
            "TEXCOORD_0": 2
          },
          "indices": 3,
          "material": 0,
          "mode": 4
        }
      ]
    },
    {
      "name": "Object_1",
      "primitives": [
        {
          "attributes": {
            "NORMAL": 5,
            "POSITION": 4,
            "TEXCOORD_0": 6
          },
          "indices": 7,
          "material": 0,
          "mode": 4
        }
      ]
    },
    {
      "name": "Object_2",
      "primitives": [
        {
          "attributes": {
            "NORMAL": 9,
            "POSITION": 8,
            "TEXCOORD_0": 10
          },
          "indices": 11,
          "material": 0,
          "mode": 4
        }
      ]
    }
  ],
  "nodes": [
    {
      "children": [
        1
      ],
      "matrix": [
        1.25,
        0.0,
        0.0,
        0.0,
        0.0,
        2.7755575615628914e-16,
        -1.25,
        0.0,
        0.0,
        1.25,
        2.7755575615628914e-16,
        0.0,
        0.0,
        0.0,
        0.0,
        1.0
      ],
      "name": "Sketchfab_model"
    },
    {
      "children": [
        2,
        3,
        4
      ],
      "name": "model.obj.cleaner.materialmerger.gles"
    },
    {
      "mesh": 0,
      "name": "Object_2"
    },
    {
      "mesh": 1,
      "name": "Object_3"
    },
    {
      "mesh": 2,
      "name": "Object_4"
    }
  ],
  "samplers": [
    {
      "magFilter": 9729,
      "minFilter": 9987,
      "wrapS": 10497,
      "wrapT": 10497
    }
  ],
  "scene": 0,
  "scenes": [
    {
      "name": "Sketchfab_Scene",
      "nodes": [
        0
      ]
    }
  ],
  "textures": [
    {
      "sampler": 0,
      "source": 0
    }
  ]
}
